<svg height="504pt" viewBox="-125 0 504 504.08" width="504pt" xmlns="http://www.w3.org/2000/svg"><path d="m126.550781 0h.105469.113281c58.726563.0976562 92.191407 35.6875 88.183594 332.503906l-88.183594 99.015625v.234375l-.113281-.128906-.105469.128906v-.234375l-88.183593-99.015625c-4.007813-296.816406 29.464843-332.4062498 88.183593-332.503906zm0 0" fill="#ffce54"/><path d="m215.136719 260.078125c-.023438-2.6875-.054688-5.367187-.097657-8h-36.261718v-24h35.816406c-.066406-2.710937-.144531-5.351563-.21875-8h-35.589844v-24h34.742188c-.117188-2.695313-.238282-5.375-.367188-8h-34.375v-24h32.949219c-.183594-2.664063-.351563-5.414063-.550781-8h-32.398438v-24h30.191406c-.28125-2.671875-.550781-5.429687-.847656-8h-29.351562v-24h26.015625c-.449219-2.75-.90625-5.398437-1.375-8h-24.640625v-24h19.40625c-.726563-2.773437-1.480469-5.4375-2.238282-8h-17.167968v-24h7.871094c-1.449219-2.863281-2.921876-5.550781-4.464844-8h-3.414063v-4.964844c-2.546875-3.417969-5.210937-6.371093-8-8.890625v13.855469h-40.007812v-27.9882812c-1.328125-.0429688-2.648438-.0898438-4-.0898438-.042969 0-.074219 0-.113281 0-.03125 0-.0625 0-.105469 0-1.277344 0-2.527344.046875-3.789063.0898438v27.9882812h-40.007812v-14.0625c-2.792969 2.496094-5.457032 5.417969-8 8.800781v5.261719h-3.609375c-1.535157 2.449219-3.015625 5.136719-4.464844 8h8.089844v24h-17.378907c-.765624 2.5625-1.511718 5.226563-2.238281 8h19.617188v24h-24.847657c-.472656 2.601563-.929687 5.25-1.378906 8h26.226563v24h-29.5625c-.292969 2.570313-.566407 5.328125-.847657 8h30.417969v24h-32.609375c-.199218 2.585937-.367187 5.335937-.550781 8h33.167969v24h-34.601563c-.128906 2.625-.246093 5.304687-.367187 8h34.953125v24h-35.808594c-.082031 2.648437-.160156 5.289063-.21875 8h36.027344v24h-36.480469c-.039062 2.632813-.066406 5.3125-.097656 8h36.570312v24h-36.699218c-.007813 2.617187.007812 5.335937.019531 8h36.679687v24h-36.554687c.023437 2.648437.050781 5.304687.082031 8h36.480469v24h-22.511719l7.125 8h15.394531v17.28125l8 8.984375v-26.265625h40.007813v71.179687l3.789062 4.253907v.230469l.105469-.125.113281.125v-.230469l4-4.496094v-70.945313h40.007813v12.113282c0 2.207031 1.792969 4 4 4s4-1.792969 4-4v-12.113282h15.175781l7.128906-8h-22.304687v-24h36.078125c.066406 0 .121094-.03125.183594-.039062.027343-2.664062.058593-5.289062.082031-7.902344-.097657-.007812-.167969-.058594-.265625-.058594h-36.078125v-24h36.472656c.007813-2.664062.023437-5.382812.015625-8h-36.488281v-24h36.34375zm-92.367188 88h-40.007812v-24h40.007812zm0-32h-40.007812v-24h40.007812zm0-32h-40.007812v-24h40.007812zm0-32h-40.007812v-24h40.007812zm0-32h-40.007812v-24h40.007812zm0-32h-40.007812v-24h40.007812zm0-32h-40.007812v-24h40.007812zm0-32h-40.007812v-24h40.007812zm0-32h-40.007812v-24h40.007812zm0-32h-40.007812v-24h40.007812zm48.007813 288h-40.007813v-24h40.007813zm0-32h-40.007813v-24h40.007813zm0-32h-40.007813v-24h40.007813zm0-32h-40.007813v-24h40.007813zm0-32h-40.007813v-24h40.007813zm0-32h-40.007813v-24h40.007813zm0-32h-40.007813v-24h40.007813zm0-32h-40.007813v-24h40.007813zm0-32h-40.007813v-24h40.007813zm0-32h-40.007813v-24h40.007813zm0 0" fill="#f6bb42"/><path d="m117.625 406c13.4375 33.6875 21.0625 50.800781 31.144531 98.078125l18-1.4375c60-12.5625 104.398438-109.6875 82.078125-310.5625 0 0-98.078125 69.050781-123.511718 184zm0 0" fill="#8cc152"/><path d="m4.769531 224.078125c-24 216 48.808594 280 96 280h48c-10.082031-47.277344-22.640625-87.199219-36.082031-120.871094-48.078125-120.078125-107.917969-159.128906-107.917969-159.128906zm0 0" fill="#a0d468"/><path d="m102.769531 476.078125c.933594 0 1.878907-.324219 2.640625-1 1.664063-1.460937 1.820313-3.980469.359375-5.636719-72.167969-81.921875-73-164.53125-73-165.363281 0-2.207031-1.792969-4-4-4-2.210937 0-4 1.792969-4 4 0 3.496094.847657 86.480469 75 170.640625.78125.898438 1.886719 1.359375 3 1.359375zm0 0" fill="#8cc152"/><path d="m158.769531 452.078125c1.078125 0 2.152344-.429687 2.933594-1.277344 55.816406-60.320312 64.695313-158.242187 65.050781-162.386719.183594-2.191406-1.449218-4.132812-3.648437-4.316406-1.976563-.175781-4.136719 1.4375-4.320313 3.644532-.089844.984374-9.03125 99.355468-62.953125 157.617187-1.503906 1.625-1.398437 4.160156.214844 5.65625.777344.710937 1.746094 1.0625 2.722656 1.0625zm0 0" fill="#7eaf3e"/></svg>